<?xml version="1.0" encoding="utf-8"?>
<svg width="500px" height="500" viewBox="0 0 500 500.00001" id="svg4807" version="1.1" xmlns="http://www.w3.org/2000/svg">
  <desc>First version composed by Mark S. Everitt.</desc>
  <title>Brighton Rust User Group logo</title>
  <g id="layer1" transform="translate(0,-552.36216)">
    <path style="fill-opacity: 1; fill-rule: evenodd; stroke: none; stroke-width: 1px; stroke-linecap: butt; stroke-linejoin: miter; stroke-opacity: 1;" d="M 250.53 580.36 C 248.388 580.36 246.247 581.303 245.086 583.188 L 233.565 601.807 L 228.137 602.337 L 213.213 586.327 C 210.189 583.09 204.08 584.289 202.53 588.458 L 194.883 608.911 L 189.61 610.508 L 171.885 597.753 C 168.284 595.151 162.527 597.549 161.815 601.921 L 158.299 623.487 L 153.457 626.085 L 133.573 617.018 C 129.531 615.171 124.346 618.642 124.516 623.073 L 125.278 644.958 L 121.075 648.413 L 99.762 643.389 C 95.433 642.381 91.036 646.771 92.053 651.1 L 97.073 672.417 L 93.625 676.61 L 71.741 675.846 C 67.326 675.719 63.847 680.859 65.686 684.909 L 74.752 704.798 L 72.155 709.639 L 50.594 713.147 C 46.214 713.859 43.84 719.617 46.424 723.217 L 59.18 740.932 L 57.578 746.212 L 37.125 753.858 C 32.974 755.409 31.759 761.512 35.004 764.546 L 51.004 779.465 L 50.475 784.887 L 31.86 796.411 C 28.09 798.741 28.09 804.98 31.86 807.301 L 50.475 818.825 L 51.004 824.247 L 35.004 839.171 C 31.759 842.195 32.974 848.295 37.125 849.854 L 57.578 857.501 L 59.18 862.78 L 46.424 880.499 C 43.832 884.108 46.218 889.862 50.598 890.565 L 72.155 894.073 L 74.752 898.923 L 65.686 918.803 C 63.839 922.845 67.326 928.042 71.741 927.864 L 93.616 927.098 L 97.073 931.299 L 92.053 952.622 C 91.036 956.943 95.433 961.33 99.762 960.313 L 121.075 955.294 L 125.278 958.743 L 124.516 980.632 C 124.346 985.063 129.531 988.527 133.573 986.68 L 153.457 977.618 L 158.299 980.215 L 161.815 1001.77 C 162.527 1006.159 168.284 1008.53 171.885 1005.946 L 189.6 993.182 L 194.879 994.788 L 202.526 1015.233 C 204.076 1019.385 210.185 1020.608 213.209 1017.354 L 228.133 1001.354 L 233.559 1001.897 L 245.082 1020.511 C 247.404 1024.264 253.643 1024.272 255.973 1020.511 L 267.496 1001.897 L 272.918 1001.354 L 287.838 1017.354 C 290.863 1020.608 296.971 1019.385 298.522 1015.233 L 306.168 994.788 L 311.448 993.182 L 329.166 1005.946 C 332.767 1008.53 338.521 1006.151 339.233 1001.77 L 342.748 980.215 L 347.59 977.618 L 367.475 986.68 C 371.516 988.527 376.693 985.071 376.532 980.632 L 375.77 958.743 L 379.967 955.294 L 401.28 960.313 C 405.609 961.33 410.003 956.943 408.987 952.622 L 403.965 931.299 L 407.414 927.098 L 429.299 927.864 C 433.713 928.042 437.204 922.845 435.348 918.803 L 426.287 898.923 L 428.879 894.073 L 450.442 890.565 C 454.83 889.862 457.211 884.108 454.61 880.499 L 441.854 862.78 L 443.455 857.501 L 463.905 849.854 C 468.065 848.295 469.279 842.195 466.026 839.171 L 450.032 824.247 L 450.561 818.825 L 469.174 807.301 C 472.945 804.98 472.949 798.741 469.174 796.411 L 450.565 784.887 L 450.036 779.465 L 466.032 764.546 C 469.285 761.512 468.069 755.409 463.909 753.858 L 443.461 746.212 L 441.86 740.932 L 454.614 723.217 C 457.215 719.617 454.826 713.867 450.446 713.147 L 428.883 709.639 L 426.291 704.798 L 435.352 684.909 C 437.207 680.859 433.76 675.677 429.303 675.846 L 407.418 676.61 L 403.961 672.417 L 408.991 651.1 C 410.007 646.771 405.613 642.373 401.284 643.389 L 379.973 648.413 L 375.77 644.958 L 376.537 623.073 C 376.707 618.642 371.52 615.18 367.479 617.018 L 347.594 626.085 L 342.752 623.487 L 339.237 601.921 C 338.525 597.549 332.773 595.16 329.172 597.753 L 311.442 610.508 L 306.172 608.911 L 298.526 588.458 C 296.975 584.289 290.867 583.09 287.842 586.327 L 272.922 602.337 L 267.5 601.807 L 255.977 583.188 C 254.812 581.303 252.671 580.36 250.53 580.36 Z M 250.211 619.387 C 257.33 619.596 262.993 625.427 262.993 632.549 C 262.957 639.795 257.073 645.651 249.827 645.651 C 242.58 645.651 236.696 639.795 236.661 632.549 C 236.66 625.127 242.792 619.17 250.211 619.387 Z M 280.383 641.067 C 327.186 649.834 367.768 678.737 391.354 720.102 L 375.825 755.178 C 373.143 761.249 375.881 768.35 381.934 771.04 L 411.832 784.319 C 412.763 793.672 412.878 803.088 412.176 812.462 C 409.864 844.989 395.568 874.424 380.623 897.268 C 376.176 903.181 371.329 908.783 366.116 914.034 L 338.27 908.048 C 331.784 906.658 325.405 910.784 324.016 917.282 L 317.407 948.122 C 274.402 967.602 225.041 967.365 182.225 947.473 L 175.621 916.633 C 174.232 910.144 167.851 906.009 161.37 907.403 L 134.145 913.249 C 115.262 893.643 101.793 866.298 94.092 842.719 C 88.679 824.747 87.205 803.035 89.346 783.01 L 117.707 770.409 C 123.765 767.719 126.503 760.618 123.813 754.548 L 108.394 726.313 C 131.344 683.037 177.215 650.558 220.454 641.106 L 240.727 662.376 C 245.311 667.175 252.903 667.354 257.698 662.766 L 280.383 641.067 Z M 93.145 738.596 C 100.263 738.805 105.926 744.635 105.926 751.757 C 105.89 759.003 100.006 764.858 92.76 764.858 C 85.514 764.858 79.63 759.003 79.594 751.757 C 79.594 744.335 85.726 738.38 93.145 738.596 Z M 407.274 739.21 C 414.392 739.418 420.055 745.249 420.055 752.37 C 420.019 759.616 414.135 765.472 406.889 765.472 C 399.643 765.472 393.759 759.616 393.723 752.37 C 393.723 744.948 399.855 738.993 407.274 739.21 Z M 152.668 924.13 C 159.787 924.338 165.449 930.169 165.45 937.29 C 165.414 944.536 159.53 950.392 152.284 950.392 C 145.037 950.392 139.153 944.536 139.118 937.29 C 139.118 929.868 145.25 923.913 152.668 924.13 Z M 347.75 924.743 C 354.87 924.951 360.532 930.783 360.532 937.905 C 360.496 945.151 354.612 951.007 347.366 951.007 C 340.119 951.007 334.235 945.151 334.2 937.905 C 334.199 930.483 340.331 924.526 347.75 924.743 Z" id="path5519"/>
    <g>
      <path d="M 126.391 915.69 C 125.813 914.985 125.813 914.407 126.263 913.447 C 126.647 912.74 132.419 908.571 132.419 908.571 L 132.612 895.165 C 132.74 884.647 132.997 881.504 133.702 880.479 C 134.28 879.644 134.664 877.593 134.664 875.154 C 134.664 872.012 135.05 870.408 136.525 867.651 L 138.384 864.122 L 137.166 861.429 C 136.012 858.864 135.947 856.619 135.947 821.535 C 135.947 781.896 135.883 782.603 139.09 779.717 C 141.015 777.984 140.758 776.381 138.577 775.611 C 137.551 775.226 136.204 774.2 135.563 773.238 C 133.253 769.967 132.099 769.069 130.175 769.069 C 128.571 769.069 128.25 768.812 128.25 767.465 C 128.25 765.991 128.507 765.862 131.137 765.862 L 134.023 765.862 L 134.023 758.486 C 134.023 754.446 134.087 750.918 134.215 750.661 C 134.28 750.34 133.126 750.083 131.65 749.956 C 129.405 749.763 128.892 749.507 128.892 748.48 C 128.892 747.518 129.341 747.262 131.329 747.262 C 134.472 747.262 135.947 745.722 135.947 742.516 C 135.947 739.694 137.102 737.321 139.475 735.075 C 140.373 734.242 141.719 732.51 142.489 731.354 L 143.772 729.238 L 142.297 727.635 C 140.886 726.096 140.886 726.096 142.105 725.134 C 143.772 723.852 145.825 723.915 147.108 725.39 C 148.134 726.544 148.134 726.673 146.595 727.827 L 144.991 729.111 L 146.401 731.098 C 147.171 732.124 148.904 734.37 150.251 735.973 C 152.047 738.026 152.816 739.629 153.072 741.618 C 153.585 746.3 154.355 747.262 157.562 747.262 C 159.871 747.262 160.32 747.454 160.32 748.545 C 160.32 749.636 159.871 749.827 157.433 749.827 L 154.547 749.827 L 154.547 757.845 L 154.547 765.862 L 157.433 765.862 C 160.064 765.862 160.32 765.991 160.32 767.402 C 160.32 768.685 159.935 769.005 158.268 769.197 C 156.665 769.326 155.767 769.967 154.42 772.019 C 153.458 773.495 151.79 775.034 150.699 775.483 C 148.198 776.509 148.262 777.407 151.02 781 L 153.264 783.949 L 153.264 821.021 C 153.264 857.902 153.264 858.222 151.854 861.044 L 150.443 863.93 L 152.175 867.074 C 153.521 869.575 153.906 871.114 153.906 874.45 C 153.906 877.593 154.227 878.939 155.189 880.222 C 156.344 881.697 156.471 882.851 156.536 895.231 L 156.6 908.571 C 156.6 908.571 162.501 913.381 163.014 913.894 C 163.526 914.407 163.526 914.856 162.886 915.626 C 161.731 917.037 127.545 917.102 126.391 915.69 Z"/>
      <path d="M 167.375 916.626 C 166.733 915.793 166.733 915.407 167.632 914.51 C 168.466 913.548 171.672 903.285 173.662 906.685 L 176.035 910.854 L 176.226 905.915 C 176.419 901.49 176.548 900.912 177.638 900.912 C 178.664 900.912 178.215 899.951 175.008 895.012 C 165.003 879.618 161.667 868.331 162.437 852.552 C 163.526 830.552 170.069 814.389 183.09 801.241 C 190.978 793.223 199.124 787.643 213.556 780.331 C 220.867 776.611 222.086 775.713 227.474 770.197 C 237.223 760.256 240.493 754.035 241.713 742.939 C 242.675 734.664 244.792 731.586 249.537 731.586 C 254.284 731.586 256.465 735.114 257.683 744.734 C 258.965 754.676 262.301 760.769 271.729 770.39 C 276.926 775.713 278.079 776.546 286.674 780.973 C 316.434 796.365 329.647 812.08 335.226 838.698 C 336.061 842.803 337.647 847.1 337.582 856.016 C 337.582 867.111 336.19 868.265 334.586 873.525 C 332.534 880.131 329.006 887.38 324.131 894.948 C 322.207 897.898 320.668 900.464 320.668 900.592 C 320.668 900.784 321.116 900.912 321.63 900.912 C 322.335 900.912 322.592 902.067 322.72 905.915 L 322.912 910.854 L 325.35 906.749 C 327.53 903.028 330.481 913.548 331.314 914.51 C 332.213 915.407 332.213 915.793 331.571 916.626 C 330.865 917.46 321.626 981.842 249.726 981.842 C 177.826 981.842 168.081 917.46 167.375 916.626 Z"/>
      <path d="M 204.422 867.907 C 199.419 861.685 197.559 855.208 199.097 849.436 C 199.739 846.998 205.512 837.57 206.859 836.736 C 207.693 836.222 213.593 845.459 214.556 848.794 C 216.159 854.566 213.915 861.75 208.591 868.035 L 206.539 870.537 L 204.422 867.907 Z"/>
      <path d="M 185.565 866.175 C 180.113 857.196 179.792 850.077 184.411 841.867 C 185.949 839.237 187.361 837.057 187.553 837.057 C 188.002 837.121 192.876 844.24 193.967 846.42 C 197.11 852.77 195.442 860.402 189.221 868.292 L 187.81 869.96 L 185.565 866.175 Z"/>
      <path d="M 336.382 915.306 C 336.19 914.6 342.475 908.571 342.475 908.571 L 342.475 895.039 C 342.475 882.338 342.539 881.441 343.758 880.35 C 344.783 879.388 345.04 878.361 345.04 874.707 C 345.04 871.05 345.361 869.703 346.772 867.137 L 348.503 864.058 L 347.093 861.109 C 345.682 858.222 345.682 858.094 345.682 821.406 L 345.682 784.591 L 347.926 781.256 C 349.145 779.395 350.172 777.536 350.172 777.086 C 350.172 776.637 349.338 775.932 348.376 775.546 C 347.349 775.098 345.617 773.495 344.527 771.891 C 342.859 769.647 342.154 769.069 340.55 769.069 C 338.947 769.069 338.627 768.812 338.627 767.465 C 338.627 765.991 338.883 765.862 341.513 765.862 L 344.399 765.862 L 344.399 757.845 L 344.399 749.827 L 341.833 749.827 C 339.717 749.827 339.268 749.636 339.268 748.545 C 339.268 747.518 339.717 747.262 341.705 747.262 C 344.527 747.262 346.452 745.53 345.874 743.477 C 345.361 741.361 346.195 739.052 348.503 736.487 C 349.659 735.204 351.389 733.023 352.352 731.611 L 354.02 729.175 L 352.545 728.021 C 351.389 727.058 351.262 726.609 351.839 725.647 C 352.801 724.108 355.687 723.787 356.97 725.134 C 357.932 726.096 357.932 726.288 356.585 727.699 C 355.174 729.238 355.174 729.303 356.265 730.971 C 356.906 731.932 358.509 733.921 359.921 735.46 C 362.487 738.283 363.898 741.618 363.256 743.542 C 362.678 745.337 364.924 747.262 367.617 747.262 C 369.606 747.262 370.054 747.518 370.054 748.545 C 370.054 749.636 369.606 749.827 367.489 749.827 L 364.924 749.827 L 364.924 757.845 L 364.924 765.862 L 367.81 765.862 C 370.439 765.862 370.696 765.991 370.696 767.465 C 370.696 768.812 370.375 769.069 368.964 769.069 C 366.784 769.069 366.334 769.39 364.09 772.468 C 363.128 773.751 361.46 775.29 360.37 775.803 C 359.343 776.381 358.509 777.023 358.509 777.343 C 358.509 777.664 359.535 779.139 360.754 780.614 L 362.999 783.308 L 362.999 821.214 C 362.935 852.898 362.807 859.441 362.037 860.788 C 360.691 863.097 360.883 865.084 362.487 867.394 C 363.641 868.998 364.025 870.537 364.218 874.193 C 364.346 877.72 364.795 879.452 365.693 880.735 C 366.911 882.338 366.976 883.3 366.719 895.294 C 366.655 902.414 366.719 907.993 366.976 907.737 C 367.232 907.481 372.236 912.548 372.749 913.318 C 373.325 914.28 373.325 914.793 372.683 915.563 C 371.915 916.46 369.477 916.589 354.276 916.589 C 337.407 916.589 336.766 916.524 336.382 915.306 Z"/>
      <path d="M 246.651 730.379 L 244.92 728.455 L 246.651 726.852 C 248.703 724.927 251.077 724.799 252.167 726.531 C 252.616 727.236 253.321 727.813 253.771 727.813 C 254.988 727.813 254.797 728.326 252.68 730.379 C 250.178 732.816 248.832 732.816 246.651 730.379 Z"/>
      <path d="M 143.131 723.761 C 142.169 722.799 142.169 722.606 143.388 719.72 C 144.477 717.026 144.542 717.026 145.888 720.168 C 146.722 722.286 146.722 722.606 145.825 723.504 C 144.605 724.723 144.158 724.787 143.131 723.761 Z"/>
      <path d="M 353.378 723.569 C 352.672 722.734 352.737 722.092 353.378 720.041 C 353.828 718.63 354.404 717.476 354.661 717.476 C 354.917 717.476 355.495 718.63 355.944 720.041 C 356.585 722.092 356.649 722.734 355.944 723.569 C 355.495 724.082 354.917 724.531 354.661 724.531 C 354.404 724.531 353.828 724.082 353.378 723.569 Z"/>
      <path d="M 246.202 723.425 C 245.176 721.63 244.47 721.117 242.996 721.117 C 241.776 721.117 241.135 720.796 241.135 720.155 C 241.135 719.513 241.776 719.193 242.802 719.193 C 243.829 719.193 245.112 718.486 246.009 717.589 C 247.935 715.472 250.948 715.472 253.001 717.525 C 253.834 718.358 255.438 719.256 256.528 719.513 C 259.094 720.09 259.03 721.117 256.4 721.117 C 254.733 721.181 254.028 721.63 253.001 723.233 C 252.038 724.708 251.142 725.349 249.602 725.478 C 247.806 725.67 247.357 725.349 246.202 723.425 Z"/>
      <path d="M 245.817 715.356 C 242.802 713.431 241.584 710.417 242.418 706.76 C 244.535 697.205 248.639 693.805 252.68 698.102 C 254.861 700.411 257.17 706.247 257.17 709.263 C 257.17 711.7 255.311 714.393 252.68 715.741 C 250.178 717.024 248.254 716.959 245.817 715.356 Z"/>
      <path d="M 247.998 695.768 C 247.421 695.318 246.458 693.779 245.882 692.368 C 245.305 690.957 244.47 689.352 243.958 688.776 C 243.188 687.942 243.316 687.685 245.305 686.723 C 248.319 685.249 249.473 682.875 247.869 681.143 C 246.971 680.117 246.908 679.732 247.549 678.898 C 248.575 677.68 250.051 677.68 251.655 678.898 C 252.808 679.797 252.808 679.925 251.846 681.016 C 251.269 681.656 250.756 682.683 250.756 683.196 C 250.756 684.479 254.284 687.557 255.758 687.557 C 256.657 687.557 256.593 687.75 255.502 688.712 C 254.733 689.289 253.771 690.892 253.321 692.175 C 252.937 693.523 251.975 695.061 251.205 695.574 C 249.537 696.729 249.345 696.729 247.998 695.768 Z"/>
      <path d="M 248.254 677.756 C 247.678 677.05 247.678 676.345 248.511 674.356 L 249.537 671.919 L 250.499 673.714 C 252.231 676.986 250.372 680.321 248.254 677.756 Z"/>
    </g>
  </g>
</svg>